<?xml version="1.0" encoding="UTF-8" standalone="no"?>
<!-- Created with Inkscape (http://www.inkscape.org/) -->

<svg
   width="210mm"
   height="297mm"
   viewBox="0 0 210 297"
   version="1.1"
   id="svg5"
   inkscape:export-filename="bitmap.svg"
   inkscape:export-xdpi="96"
   inkscape:export-ydpi="96"
   xmlns:inkscape="http://www.inkscape.org/namespaces/inkscape"
   xmlns:sodipodi="http://sodipodi.sourceforge.net/DTD/sodipodi-0.dtd"
   xmlns="http://www.w3.org/2000/svg"
   xmlns:svg="http://www.w3.org/2000/svg">
  <sodipodi:namedview
     id="namedview7"
     pagecolor="#ffffff"
     bordercolor="#000000"
     borderopacity="0.25"
     inkscape:showpageshadow="2"
     inkscape:pageopacity="0.0"
     inkscape:pagecheckerboard="0"
     inkscape:deskcolor="#d1d1d1"
     inkscape:document-units="mm"
     showgrid="false" />
  <defs
     id="defs2" />
  <g
     inkscape:label="Layer 1"
     inkscape:groupmode="layer"
     id="layer1">
    <g
       aria-label="Anna K Croft"
       id="text113"
       style="font-size:8.46667px;font-family:'Marker Felt';-inkscape-font-specification:'Marker Felt, Normal';fill:#2b0000;stroke-width:0.264583"
       inkscape:label="text113">
      <path
         id="path115"
         style="font-size:14.1111px;font-family:'Arial Rounded MT Bold';-inkscape-font-specification:'Arial Rounded MT Bold, Normal'"
         d="m 41.492558,132.74487 c -0.280201,0 -0.516592,0.0551 -0.709518,0.16536 -0.188331,0.10566 -0.342558,0.24559 -0.461987,0.42013 -0.114836,0.17456 -0.22508,0.39504 -0.330729,0.66146 -0.101056,0.26183 -0.187988,0.48708 -0.261483,0.67541 l -2.583821,6.55929 c -0.105651,0.26183 -0.181443,0.46641 -0.227377,0.6134 -0.04593,0.14699 -0.06925,0.28904 -0.06925,0.42685 0,0.23885 0.0991,0.45245 0.296623,0.64079 0.197518,0.18833 0.424895,0.28267 0.682128,0.28267 0.303169,0 0.521014,-0.0875 0.654224,-0.262 0.13321,-0.17914 0.294326,-0.52102 0.482658,-1.0263 l 0.482141,-1.29553 h 4.106726 l 0.482141,1.26763 c 0.06431,0.15618 0.140101,0.33796 0.227377,0.54467 0.09187,0.20211 0.176676,0.3537 0.254764,0.45475 0.07809,0.0965 0.174552,0.17224 0.289388,0.22738 0.114837,0.0597 0.252641,0.0894 0.413412,0.0894 0.275607,0 0.509874,-0.0965 0.702799,-0.28939 0.197519,-0.19752 0.296623,-0.41324 0.296623,-0.64751 0,-0.22507 -0.103353,-0.58601 -0.310059,-1.0821 l -2.639115,-6.51795 c -0.124023,-0.32613 -0.227377,-0.58584 -0.310059,-0.77876 -0.07809,-0.19752 -0.176676,-0.38092 -0.296106,-0.55087 -0.114836,-0.16996 -0.269062,-0.30776 -0.461987,-0.41342 -0.188331,-0.11024 -0.424723,-0.16536 -0.709517,-0.16536 z m 36.214844,0 c -0.312355,0 -0.560403,0.10335 -0.744141,0.31006 -0.179145,0.2067 -0.268718,0.51677 -0.268718,0.93017 v 7.51014 c 0,0.32155 0.0069,0.56747 0.02067,0.73742 0.01378,0.16996 0.053,0.3189 0.117306,0.44752 0.08727,0.15617 0.211299,0.2802 0.37207,0.37207 0.16077,0.0919 0.32826,0.13798 0.502812,0.13798 0.303167,0 0.551215,-0.10123 0.74414,-0.30334 0.192925,-0.20671 0.289388,-0.52102 0.289388,-0.94362 v -2.08772 l 1.674317,-1.60559 2.418457,3.7207 c 0.09646,0.16536 0.206706,0.34928 0.330729,0.55139 0.124023,0.20211 0.275608,0.36483 0.454752,0.48886 0.179146,0.11943 0.411288,0.17932 0.696082,0.17932 0.303168,0 0.541683,-0.0827 0.716235,-0.24805 0.179145,-0.16536 0.268718,-0.36041 0.268718,-0.58549 0,-0.20212 -0.05036,-0.40882 -0.151412,-0.62012 -0.101056,-0.21589 -0.25264,-0.46658 -0.454753,-0.75138 l -2.866492,-4.10621 2.487704,-2.35644 c 0.307762,-0.29399 0.46147,-0.59026 0.46147,-0.88884 0,-0.24804 -0.0917,-0.4574 -0.275435,-0.62735 -0.179144,-0.17455 -0.416053,-0.26148 -0.710034,-0.26148 -0.225079,0 -0.406349,0.0482 -0.544153,0.14469 -0.13321,0.0965 -0.296451,0.24541 -0.489376,0.44752 l -4.016809,4.18941 v -3.54139 c 0,-0.418 -0.09646,-0.72806 -0.289388,-0.93017 -0.188331,-0.20671 -0.436379,-0.31006 -0.744139,-0.31006 z m 17.363281,0 c -0.670644,0 -1.30242,0.11926 -1.894975,0.35812 -0.592555,0.23886 -1.109321,0.58813 -1.550293,1.04748 -0.440972,0.45474 -0.780717,1.00332 -1.019576,1.64641 -0.234266,0.64309 -0.3514,1.37132 -0.3514,2.18436 0,0.50069 0.04611,0.97399 0.137976,1.41955 0.09646,0.44557 0.238517,0.86588 0.426848,1.26091 0.188332,0.39044 0.415708,0.74397 0.682129,1.06092 0.298574,0.3491 0.625056,0.6316 0.978751,0.84749 0.35829,0.2113 0.755281,0.36764 1.191659,0.4687 0.436378,0.10106 0.921334,0.15142 1.454175,0.15142 0.702798,0 1.318152,-0.11237 1.846398,-0.33745 0.528247,-0.22508 0.962331,-0.51711 1.302247,-0.8754 0.339915,-0.36289 0.587963,-0.73019 0.74414,-1.10226 0.160771,-0.37666 0.241329,-0.72594 0.241329,-1.04748 0,-0.25264 -0.08745,-0.46359 -0.261999,-0.63355 -0.174552,-0.16996 -0.383382,-0.25528 -0.626835,-0.25528 -0.284795,0 -0.491501,0.0853 -0.620118,0.25528 -0.128616,0.16536 -0.236735,0.38108 -0.324011,0.6475 -0.206705,0.565 -0.51464,0.99432 -0.923458,1.2883 -0.404223,0.28939 -0.900319,0.43408 -1.488281,0.43408 -0.542027,0 -1.014811,-0.12827 -1.419035,-0.38551 -0.404223,-0.25723 -0.716925,-0.64572 -0.93741,-1.16478 -0.220486,-0.52366 -0.330729,-1.17823 -0.330729,-1.96371 0,-1.17592 0.248047,-2.08279 0.74414,-2.72128 0.500686,-0.63849 1.171679,-0.95808 2.01228,-0.95808 0.528248,0 0.971346,0.12402 1.329635,0.37207 0.362883,0.24805 0.677709,0.62276 0.944128,1.12345 0.160772,0.30316 0.305466,0.51676 0.434082,0.64078 0.133211,0.12402 0.330386,0.18604 0.592212,0.18604 0.234267,0 0.434083,-0.0896 0.599447,-0.26872 0.165364,-0.17915 0.248047,-0.38585 0.248047,-0.62012 0,-0.42719 -0.169614,-0.87982 -0.50953,-1.35754 -0.339915,-0.48231 -0.82912,-0.88671 -1.46761,-1.21284 -0.63849,-0.32613 -1.366729,-0.48886 -2.184363,-0.48886 z m 22.806357,0 c -0.62011,0 -1.10932,0.08 -1.46761,0.24081 -0.35369,0.15617 -0.60599,0.40899 -0.75757,0.75809 -0.147,0.34451 -0.22066,0.81093 -0.22066,1.39889 v 0.56482 h -0.44804 c -0.6293,0 -0.94361,0.22525 -0.94361,0.67541 0,0.20211 0.0758,0.36747 0.22738,0.49609 0.15158,0.12402 0.3673,0.18604 0.6475,0.18604 h 0.51677 v 4.98161 c 0,0.37206 0.0874,0.65669 0.262,0.85421 0.17914,0.19292 0.40175,0.28939 0.66817,0.28939 0.2802,0 0.50758,-0.0965 0.68213,-0.28939 0.17914,-0.19752 0.26872,-0.48215 0.26872,-0.85421 v -4.98161 h 0.46147 c 0.33532,0 0.59715,-0.0413 0.78548,-0.12402 0.19293,-0.0827 0.28939,-0.27774 0.28939,-0.5855 0,-0.43178 -0.35829,-0.64802 -1.07487,-0.64802 h -0.46147 v -0.44752 c 0,-0.37207 0.0482,-0.65721 0.14469,-0.85473 0.0965,-0.2021 0.31482,-0.30282 0.65474,-0.30282 0.12402,0 0.27561,0.0133 0.45476,0.0408 0.17914,0.0275 0.30529,0.0413 0.37878,0.0413 0.15618,0 0.29186,-0.062 0.4067,-0.18603 0.11483,-0.12402 0.17208,-0.27297 0.17208,-0.44752 0,-0.53743 -0.5491,-0.80615 -1.64693,-0.80615 z m 3.20394,0.24081 c -0.16995,0 -0.32366,0.0413 -0.46147,0.12402 -0.1378,0.0781 -0.24328,0.18144 -0.31678,0.31006 -0.0735,0.12402 -0.11957,0.27348 -0.13797,0.44804 -0.0138,0.16996 -0.0207,0.40635 -0.0207,0.70952 v 1.13016 h -0.20671 c -0.28479,0 -0.50316,0.0641 -0.65474,0.19275 -0.14699,0.12403 -0.22014,0.28514 -0.22014,0.48266 0,0.19751 0.071,0.36024 0.21342,0.48886 0.1424,0.12861 0.34911,0.19327 0.62012,0.19327 h 0.24805 v 3.61011 c 0,0.58338 0.0461,1.04979 0.13797,1.39889 0.0965,0.34909 0.29628,0.62258 0.59945,0.8201 0.30317,0.19752 0.74839,0.29611 1.33635,0.29611 0.62012,0 1.09555,-0.0806 1.42627,-0.24133 0.33074,-0.16077 0.4961,-0.39239 0.4961,-0.69557 0,-0.17914 -0.062,-0.3286 -0.18604,-0.44803 -0.11943,-0.12402 -0.25459,-0.18604 -0.40618,-0.18604 -0.10564,0 -0.25298,0.0207 -0.44131,0.062 -0.18834,0.0367 -0.33728,0.0553 -0.44752,0.0553 -0.20211,0 -0.34944,-0.0482 -0.44132,-0.1447 -0.0872,-0.10106 -0.14236,-0.22985 -0.16536,-0.38602 -0.0184,-0.16077 -0.0274,-0.38815 -0.0274,-0.68213 v -3.4587 h 0.3514 c 0.37207,0 0.65669,-0.0509 0.85421,-0.15193 0.20211,-0.10105 0.30334,-0.27756 0.30334,-0.5302 0,-0.19752 -0.071,-0.35863 -0.21342,-0.48266 -0.1378,-0.12861 -0.34026,-0.19275 -0.60668,-0.19275 h -0.68885 v -1.28158 c 0,-0.31694 -0.0186,-0.56022 -0.0553,-0.73018 -0.0322,-0.17455 -0.1122,-0.32189 -0.24082,-0.44132 -0.19292,-0.17914 -0.40916,-0.26872 -0.64802,-0.26872 z m -79.602375,1.91565 1.522905,4.16873 h -3.017904 z m 26.389604,0.62683 c -0.739546,0 -1.357541,0.10123 -1.853634,0.30334 -0.496093,0.20212 -0.861274,0.45918 -1.09554,0.77153 -0.234267,0.31236 -0.3514,0.63407 -0.3514,0.9648 0,0.2113 0.07579,0.38568 0.227376,0.52348 0.156178,0.13322 0.340089,0.19999 0.551388,0.19999 0.234266,0 0.385851,-0.0413 0.454753,-0.12402 0.07349,-0.0873 0.195394,-0.2643 0.365352,-0.53072 0.174551,-0.26642 0.381258,-0.46623 0.620117,-0.59945 0.243453,-0.1332 0.603869,-0.19947 1.081588,-0.19947 0.555808,0 0.920989,0.11714 1.09554,0.3514 0.179145,0.22968 0.280374,0.59221 0.303341,1.08831 -0.395037,0.11483 -0.76286,0.21393 -1.102775,0.29662 -0.335322,0.0781 -0.739204,0.16502 -1.212329,0.26148 -0.473126,0.0965 -0.769405,0.15851 -0.888835,0.18604 -0.569588,0.12402 -1.017452,0.36782 -1.343587,0.7307 -0.326136,0.36288 -0.489376,0.80122 -0.489376,1.31569 0,0.38125 0.09859,0.7353 0.296106,1.06143 0.197518,0.32613 0.477893,0.58532 0.840775,0.77825 0.367477,0.18833 0.792546,0.28267 1.274858,0.28267 0.528248,0 1.003672,-0.0875 1.42627,-0.262 0.427191,-0.17914 0.868165,-0.44522 1.322916,-0.79892 0.211299,0.34451 0.411115,0.60847 0.599447,0.7922 0.188331,0.17915 0.378616,0.26872 0.571541,0.26872 0.229673,0 0.434255,-0.0779 0.613399,-0.2341 0.183739,-0.16076 0.275436,-0.33779 0.275436,-0.53071 0,-0.11025 -0.05937,-0.35617 -0.178801,-0.73743 -0.114836,-0.38585 -0.172599,-0.75528 -0.172599,-1.10897 0.0046,-0.37667 0.0072,-0.71905 0.0072,-1.02681 0.0046,-0.30776 0.0067,-0.68196 0.0067,-1.12293 0,-0.69821 -0.09859,-1.25896 -0.296106,-1.68155 -0.192925,-0.4226 -0.526297,-0.73002 -0.999422,-0.92295 -0.473126,-0.19752 -1.12293,-0.29662 -1.949752,-0.29662 z m -19.457727,0.0139 c -0.271013,0 -0.48461,0.0896 -0.640788,0.26872 -0.156177,0.17455 -0.234611,0.44115 -0.234611,0.79944 v 5.43636 c 0,0.36747 0.08745,0.64997 0.262,0.84749 0.174551,0.19752 0.397162,0.29611 0.668176,0.29611 0.2802,0 0.507578,-0.0943 0.682129,-0.28267 0.179145,-0.19293 0.268717,-0.47968 0.268717,-0.86093 v -2.35645 c 0,-0.76711 0.04611,-1.29076 0.137976,-1.57096 0.128617,-0.3491 0.330557,-0.62259 0.606165,-0.82011 0.275607,-0.20211 0.581418,-0.30334 0.91674,-0.30334 0.514466,0 0.856336,0.16536 1.026294,0.4961 0.174551,0.32613 0.261999,0.79943 0.261999,1.41955 v 3.13521 c 0,0.36747 0.08745,0.64997 0.262,0.84749 0.174551,0.19752 0.401928,0.29611 0.682129,0.29611 0.275607,0 0.498219,-0.0965 0.668176,-0.28939 0.174552,-0.19293 0.261999,-0.47755 0.261999,-0.85421 v -3.50056 c 0,-0.41341 -0.01855,-0.75316 -0.05529,-1.01958 -0.03675,-0.26642 -0.117306,-0.51447 -0.241329,-0.74414 -0.192926,-0.39504 -0.484439,-0.70033 -0.874882,-0.91622 -0.390444,-0.2159 -0.833542,-0.32402 -1.329635,-0.32402 -0.509873,0 -0.962503,0.10336 -1.35754,0.31006 -0.390443,0.20212 -0.750859,0.52119 -1.081588,0.95757 v -0.22738 c 0,-0.22508 -0.04134,-0.41537 -0.124023,-0.57154 -0.07809,-0.15618 -0.184083,-0.27331 -0.317293,-0.3514 -0.133211,-0.0781 -0.282154,-0.11731 -0.447518,-0.11731 z m 8.522994,0 c -0.271013,0 -0.48461,0.0896 -0.640788,0.26872 -0.156177,0.17455 -0.234094,0.44115 -0.234094,0.79944 v 5.43636 c 0,0.36747 0.08693,0.64997 0.261482,0.84749 0.174552,0.19752 0.39768,0.29611 0.668694,0.29611 0.2802,0 0.507577,-0.0943 0.682128,-0.28267 0.179146,-0.19293 0.268718,-0.47968 0.268718,-0.86093 v -2.35645 c 0,-0.76711 0.04559,-1.29076 0.137459,-1.57096 0.128617,-0.3491 0.331074,-0.62259 0.606682,-0.82011 0.275607,-0.20211 0.580901,-0.30334 0.916223,-0.30334 0.514466,0 0.856853,0.16536 1.02681,0.4961 0.174552,0.32613 0.261483,0.79943 0.261483,1.41955 v 3.13521 c 0,0.36747 0.08745,0.64997 0.262,0.84749 0.174551,0.19752 0.401928,0.29611 0.682129,0.29611 0.275607,0 0.498219,-0.0965 0.668176,-0.28939 0.174552,-0.19293 0.261999,-0.47755 0.261999,-0.85421 v -3.50056 c 0,-0.41341 -0.01855,-0.75316 -0.05529,-1.01958 -0.03675,-0.26642 -0.116789,-0.51447 -0.240813,-0.74414 -0.192925,-0.39504 -0.484955,-0.70033 -0.875398,-0.91622 -0.390444,-0.2159 -0.833542,-0.32402 -1.329635,-0.32402 -0.509873,0 -0.962503,0.10336 -1.35754,0.31006 -0.390443,0.20212 -0.750859,0.52119 -1.081588,0.95757 v -0.22738 c 0,-0.22508 -0.04134,-0.41537 -0.124023,-0.57154 -0.07809,-0.15618 -0.183567,-0.27331 -0.316777,-0.3514 -0.13321,-0.0781 -0.28267,-0.11731 -0.448034,-0.11731 z m 44.937824,0 c -0.61093,0 -0.91622,0.42243 -0.91622,1.26763 v 5.23689 c 0,0.37666 0.0869,0.66128 0.26148,0.85421 0.17455,0.19292 0.39768,0.28939 0.66869,0.28939 0.27561,0 0.50299,-0.0943 0.68213,-0.28267 0.17914,-0.19293 0.26872,-0.47968 0.26872,-0.86093 v -1.57097 c 0,-0.565 0.018,-1.04306 0.0548,-1.4335 0.0367,-0.39504 0.10353,-0.73478 0.19999,-1.01958 0.0965,-0.28479 0.23214,-0.49838 0.40669,-0.64078 0.17455,-0.14699 0.39929,-0.22066 0.67489,-0.22066 0.20212,0 0.43426,0.044 0.69608,0.13126 0.26642,0.0827 0.43392,0.12402 0.50282,0.12402 0.18374,0 0.35386,-0.0737 0.51004,-0.22066 0.16077,-0.15159 0.24133,-0.34238 0.24133,-0.57206 0,-0.32613 -0.18604,-0.58796 -0.5581,-0.78548 -0.37208,-0.19752 -0.75581,-0.29611 -1.15084,-0.29611 -0.39504,0 -0.71198,0.0986 -0.95084,0.29611 -0.23427,0.19752 -0.46377,0.48955 -0.68885,0.8754 -0.0138,-0.38585 -0.0896,-0.67788 -0.22738,-0.8754 -0.1378,-0.19752 -0.36306,-0.29611 -0.67541,-0.29611 z m 8.0269,0 c -0.5604,0 -1.0724,0.0917 -1.53634,0.27544 -0.46394,0.17915 -0.85881,0.43673 -1.18494,0.77205 -0.32614,0.33532 -0.57683,0.73921 -0.75137,1.21232 -0.17456,0.47313 -0.26149,0.99466 -0.26149,1.56425 0,0.56499 0.0848,1.08176 0.25477,1.55029 0.17454,0.46394 0.42736,0.86834 0.75809,1.21285 0.33532,0.33992 0.73019,0.60175 1.18494,0.78548 0.45475,0.18374 0.96676,0.27544 1.53634,0.27544 0.57418,0 1.09095,-0.0896 1.55029,-0.26872 0.45935,-0.18373 0.85474,-0.44556 1.18546,-0.78548 0.33073,-0.33992 0.58303,-0.74644 0.75758,-1.21957 0.17455,-0.47312 0.262,-0.98989 0.262,-1.55029 0,-0.565 -0.0875,-1.08177 -0.262,-1.55029 -0.16995,-0.46854 -0.42013,-0.87293 -0.75086,-1.21285 -0.33073,-0.33991 -0.72824,-0.60174 -1.19218,-0.78548 -0.46394,-0.18374 -0.9807,-0.27544 -1.55029,-0.27544 z m 0,1.39165 c 0.56959,0 1.02222,0.2136 1.35754,0.64079 0.33991,0.42719 0.51005,1.02451 0.51005,1.79162 0,0.75792 -0.17014,1.3526 -0.51005,1.78439 -0.33532,0.42718 -0.78795,0.64079 -1.35754,0.64079 -0.37666,0 -0.70475,-0.0965 -0.98495,-0.28939 -0.27561,-0.19752 -0.48921,-0.48002 -0.64079,-0.8475 -0.14699,-0.36747 -0.22066,-0.79679 -0.22066,-1.28829 0,-0.49609 0.0758,-0.93017 0.22738,-1.30225 0.15158,-0.37206 0.3673,-0.65244 0.6475,-0.84077 0.2802,-0.19293 0.60404,-0.28939 0.97152,-0.28939 z m -40.63111,2.47375 v 0.26872 c 0,0.65226 -0.08532,1.1208 -0.255282,1.4056 -0.14699,0.25723 -0.378616,0.4687 -0.695565,0.63407 -0.312354,0.16077 -0.654741,0.24081 -1.02681,0.24081 -0.349103,0 -0.631601,-0.0986 -0.847494,-0.29611 -0.215892,-0.20211 -0.324011,-0.44539 -0.324011,-0.73018 0,-0.27561 0.09221,-0.48921 0.275952,-0.64079 0.183738,-0.15618 0.376664,-0.25953 0.578776,-0.31006 0.202112,-0.0551 0.564652,-0.13781 1.088306,-0.24805 0.528247,-0.11484 0.930521,-0.22296 1.206128,-0.32401 z" />
    </g>
  </g>
</svg>
