<?xml version="1.0" encoding="UTF-8" standalone="no"?>
<!-- Created with Inkscape (http://www.inkscape.org/) -->

<svg
   width="210mm"
   height="297mm"
   viewBox="0 0 210 297"
   version="1.1"
   id="svg5"
   inkscape:version="1.2.2 (b0a84865, 2022-12-01)"
   sodipodi:docname="nlogo.svg"
   xmlns:inkscape="http://www.inkscape.org/namespaces/inkscape"
   xmlns:sodipodi="http://sodipodi.sourceforge.net/DTD/sodipodi-0.dtd"
   xmlns="http://www.w3.org/2000/svg"
   xmlns:svg="http://www.w3.org/2000/svg">
  <sodipodi:namedview
     id="namedview7"
     pagecolor="#ffffff"
     bordercolor="#000000"
     borderopacity="0.25"
     inkscape:showpageshadow="2"
     inkscape:pageopacity="0.0"
     inkscape:pagecheckerboard="0"
     inkscape:deskcolor="#d1d1d1"
     inkscape:document-units="mm"
     showgrid="false"
     inkscape:zoom="3.809356"
     inkscape:cx="240.06683"
     inkscape:cy="128.10564"
     inkscape:window-width="1414"
     inkscape:window-height="820"
     inkscape:window-x="0"
     inkscape:window-y="32"
     inkscape:window-maximized="0"
     inkscape:current-layer="layer1" />
  <defs
     id="defs2">
    <rect
       x="318.78491"
       y="133.01026"
       width="240.73757"
       height="57.161432"
       id="rect537" />
    <rect
       x="103.33028"
       y="93.436956"
       width="233.04276"
       height="62.657724"
       id="rect478" />
    <rect
       x="833.2378"
       y="161.59097"
       width="386.93892"
       height="68.154015"
       id="rect181" />
    <rect
       x="334.17453"
       y="123.11693"
       width="220.95092"
       height="125.31545"
       id="rect171" />
  </defs>
  <g
     inkscape:label="Layer 1"
     inkscape:groupmode="layer"
     id="layer1">
    <g
       aria-label="Anna K Croft"
       id="text113"
       style="font-size:3.175px;stroke-width:0.264583">
      <path
         d="M 37.113948,35.378567 36.824559,34.61789 h -2.463933 l -0.289388,0.777214 q -0.169499,0.454753 -0.289388,0.615983 -0.119889,0.157097 -0.392741,0.157097 -0.231511,0 -0.409278,-0.169499 -0.177767,-0.169499 -0.177767,-0.384473 0,-0.124023 0.04134,-0.256315 0.04134,-0.132292 0.136425,-0.367936 l 1.550294,-3.935679 q 0.06615,-0.169499 0.157096,-0.405143 0.09508,-0.239779 0.198438,-0.396876 0.107487,-0.157096 0.276986,-0.252181 0.173633,-0.09922 0.425814,-0.09922 0.256315,0 0.425814,0.09922 0.173633,0.09509 0.276985,0.248047 0.107487,0.152963 0.177767,0.33073 0.07441,0.173632 0.186036,0.467155 l 1.583366,3.910874 q 0.186035,0.446484 0.186035,0.649056 0,0.21084 -0.177767,0.388607 -0.173632,0.173633 -0.421679,0.173633 -0.144694,0 -0.248047,-0.05374 -0.103353,-0.04961 -0.173633,-0.136426 -0.07028,-0.09095 -0.152963,-0.272851 -0.07855,-0.186036 -0.136425,-0.326596 z m -2.430861,-1.682585 h 1.810743 l -0.91364,-2.50114 z"
         style="font-size:8.46667px;font-family:'Arial Rounded MT Bold';-inkscape-font-specification:'Arial Rounded MT Bold, Normal';fill:#2b0000"
         id="path489" />
      <path
         d="m 40.272413,32.203566 v 0.136426 q 0.297656,-0.392741 0.649056,-0.574642 0.355534,-0.186035 0.814421,-0.186035 0.446484,0 0.797884,0.194303 0.3514,0.194304 0.525033,0.549838 0.111621,0.206705 0.144694,0.446484 0.03307,0.239779 0.03307,0.611849 v 2.100131 q 0,0.338998 -0.157097,0.512631 -0.152962,0.173633 -0.401009,0.173633 -0.252181,0 -0.409277,-0.177767 -0.157097,-0.177767 -0.157097,-0.508497 v -1.881022 q 0,-0.558106 -0.157096,-0.851628 -0.152962,-0.297657 -0.615983,-0.297657 -0.301791,0 -0.549838,0.181901 -0.248047,0.177767 -0.363802,0.49196 -0.08268,0.252181 -0.08268,0.942579 v 1.413867 q 0,0.343132 -0.161231,0.516765 -0.157096,0.169499 -0.409278,0.169499 -0.243912,0 -0.401009,-0.177767 -0.157096,-0.177767 -0.157096,-0.508497 v -3.261817 q 0,-0.322461 0.14056,-0.479558 0.14056,-0.16123 0.384473,-0.16123 0.148828,0 0.268717,0.07028 0.119889,0.07028 0.190169,0.21084 0.07442,0.14056 0.07442,0.343131 z"
         style="font-size:8.46667px;font-family:'Arial Rounded MT Bold';-inkscape-font-specification:'Arial Rounded MT Bold, Normal';fill:#2b0000"
         id="path491" />
      <path
         d="m 45.386314,32.203566 v 0.136426 q 0.297657,-0.392741 0.649056,-0.574642 0.355534,-0.186035 0.814421,-0.186035 0.446485,0 0.797885,0.194303 0.3514,0.194304 0.525032,0.549838 0.111622,0.206705 0.144695,0.446484 0.03307,0.239779 0.03307,0.611849 v 2.100131 q 0,0.338998 -0.157096,0.512631 -0.152962,0.173633 -0.401009,0.173633 -0.252181,0 -0.409278,-0.177767 -0.157096,-0.177767 -0.157096,-0.508497 v -1.881022 q 0,-0.558106 -0.157097,-0.851628 -0.152962,-0.297657 -0.615983,-0.297657 -0.30179,0 -0.549837,0.181901 -0.248047,0.177767 -0.363803,0.49196 -0.08268,0.252181 -0.08268,0.942579 v 1.413867 q 0,0.343132 -0.16123,0.516765 -0.157097,0.169499 -0.409278,0.169499 -0.243913,0 -0.401009,-0.177767 Q 44.32798,35.81265 44.32798,35.48192 v -3.261817 q 0,-0.322461 0.14056,-0.479558 0.14056,-0.16123 0.384473,-0.16123 0.148828,0 0.268718,0.07028 0.119889,0.07028 0.190169,0.21084 0.07441,0.14056 0.07441,0.343131 z"
         style="font-size:8.46667px;font-family:'Arial Rounded MT Bold';-inkscape-font-specification:'Arial Rounded MT Bold, Normal';fill:#2b0000"
         id="path493" />
      <path
         d="m 52.327495,35.53153 q -0.409278,0.318327 -0.793751,0.479557 -0.380338,0.157097 -0.855762,0.157097 -0.434082,0 -0.764811,-0.169499 -0.326595,-0.173633 -0.504362,-0.467155 -0.177767,-0.293522 -0.177767,-0.636654 0,-0.463021 0.293522,-0.789616 0.293522,-0.326595 0.806153,-0.438217 0.107487,-0.0248 0.533301,-0.111621 0.425813,-0.08682 0.727604,-0.157096 0.305925,-0.07441 0.661459,-0.177767 -0.02067,-0.446485 -0.181902,-0.653191 -0.157096,-0.210839 -0.657324,-0.210839 -0.429948,0 -0.649056,0.119889 -0.214974,0.119889 -0.372071,0.359668 -0.152962,0.239779 -0.219108,0.318327 -0.06201,0.07441 -0.272852,0.07441 -0.190169,0 -0.330729,-0.119889 -0.136426,-0.124024 -0.136426,-0.314193 0,-0.297657 0.21084,-0.578776 0.21084,-0.28112 0.657325,-0.463021 0.446484,-0.181902 1.112077,-0.181902 0.744141,0 1.169955,0.177767 0.425814,0.173633 0.599447,0.553972 0.177767,0.380339 0.177767,1.008724 0,0.396876 -0.0041,0.673861 0,0.276986 -0.0041,0.615984 0,0.318327 0.103353,0.665592 0.107487,0.343132 0.107487,0.442351 0,0.173633 -0.165364,0.318327 -0.161231,0.14056 -0.367937,0.14056 -0.173632,0 -0.343131,-0.161231 -0.169499,-0.165364 -0.359668,-0.475423 z m -0.07441,-1.632976 q -0.248047,0.09095 -0.723471,0.194303 -0.471289,0.09922 -0.65319,0.148829 -0.181901,0.04547 -0.347266,0.186035 -0.165365,0.136426 -0.165365,0.384473 0,0.256315 0.194304,0.438216 0.194303,0.177767 0.508496,0.177767 0.334864,0 0.615984,-0.144694 0.285254,-0.148828 0.417545,-0.380339 0.152963,-0.256315 0.152963,-0.84336 z"
         style="font-size:8.46667px;font-family:'Arial Rounded MT Bold';-inkscape-font-specification:'Arial Rounded MT Bold, Normal';fill:#2b0000"
         id="path495" />
      <path
         d="m 57.937492,30.645004 v 2.124936 l 2.410189,-2.513543 q 0.173633,-0.181901 0.293523,-0.268717 0.124023,-0.08682 0.326595,-0.08682 0.264583,0 0.425814,0.157097 0.165364,0.152962 0.165364,0.376204 0,0.268718 -0.276985,0.533301 l -1.492416,1.413868 1.719792,2.463933 q 0.181901,0.256316 0.272852,0.450619 0.09095,0.19017 0.09095,0.372071 0,0.202571 -0.16123,0.3514 -0.157097,0.148828 -0.429948,0.148828 -0.256316,0 -0.417546,-0.107487 -0.161231,-0.111621 -0.272852,-0.293523 -0.111621,-0.181901 -0.198437,-0.330729 l -1.451075,-2.232423 -1.00459,0.963249 v 1.252638 q 0,0.380338 -0.173633,0.566374 -0.173633,0.181901 -0.446485,0.181901 -0.157096,0 -0.30179,-0.08268 -0.144694,-0.08268 -0.223243,-0.223242 -0.05788,-0.115755 -0.07028,-0.268717 -0.0124,-0.152963 -0.0124,-0.442351 v -4.506187 q 0,-0.37207 0.161231,-0.558105 0.165364,-0.186036 0.446484,-0.186036 0.276986,0 0.446485,0.186036 0.173633,0.181901 0.173633,0.558105 z"
         style="font-size:8.46667px;font-family:'Arial Rounded MT Bold';-inkscape-font-specification:'Arial Rounded MT Bold, Normal';fill:#2b0000"
         id="path497" />
      <path
         d="m 70.248889,34.150735 q 0,0.289388 -0.144694,0.628386 -0.14056,0.334863 -0.446484,0.661458 -0.305925,0.322461 -0.781348,0.525033 -0.475424,0.202572 -1.107943,0.202572 -0.479558,0 -0.872299,-0.09095 -0.392741,-0.09095 -0.715202,-0.28112 -0.318327,-0.194303 -0.587044,-0.508496 -0.239779,-0.285254 -0.409278,-0.636654 -0.169499,-0.355534 -0.256315,-0.756543 -0.08268,-0.40101 -0.08268,-0.851628 0,-0.731739 0.210839,-1.310515 0.214975,-0.578776 0.61185,-0.988054 0.396875,-0.413411 0.930176,-0.628385 0.533301,-0.214975 1.136882,-0.214975 0.735872,0 1.310515,0.293523 0.574642,0.293522 0.880566,0.727604 0.305925,0.429948 0.305925,0.814421 0,0.21084 -0.148828,0.372071 -0.148828,0.16123 -0.359668,0.16123 -0.235645,0 -0.355534,-0.111621 -0.115756,-0.111621 -0.26045,-0.384473 -0.239778,-0.450619 -0.566374,-0.673861 -0.322461,-0.223242 -0.797884,-0.223242 -0.756543,0 -1.207162,0.574642 -0.446484,0.574642 -0.446484,1.632976 0,0.706934 0.198437,1.178223 0.198438,0.467155 0.56224,0.698666 0.363802,0.23151 0.851628,0.23151 0.529167,0 0.892969,-0.260449 0.367936,-0.264584 0.553972,-0.77308 0.07855,-0.239779 0.194303,-0.388607 0.115755,-0.152962 0.37207,-0.152962 0.219109,0 0.376205,0.152962 0.157096,0.152963 0.157096,0.380339 z"
         style="font-size:8.46667px;font-family:'Arial Rounded MT Bold';-inkscape-font-specification:'Arial Rounded MT Bold, Normal';fill:#2b0000"
         id="path499" />
      <path
         d="m 72.394494,34.539342 v 0.942578 q 0,0.343132 -0.16123,0.516765 -0.161231,0.169499 -0.409278,0.169499 -0.243913,0 -0.401009,-0.173633 -0.157096,-0.173633 -0.157096,-0.512631 v -3.141928 q 0,-0.760677 0.549837,-0.760677 0.28112,0 0.405143,0.177767 0.124024,0.177767 0.136426,0.525032 0.202572,-0.347265 0.413412,-0.525032 0.214974,-0.177767 0.570508,-0.177767 0.355534,0 0.690397,0.177767 0.334864,0.177767 0.334864,0.471289 0,0.206706 -0.144694,0.343132 -0.14056,0.132291 -0.305925,0.132291 -0.06201,0 -0.30179,-0.07441 -0.235645,-0.07855 -0.417546,-0.07855 -0.248047,0 -0.405144,0.132292 -0.157096,0.128157 -0.243912,0.384473 -0.08682,0.256315 -0.11989,0.611849 -0.03307,0.3514 -0.03307,0.859896 z"
         style="font-size:8.46667px;font-family:'Arial Rounded MT Bold';-inkscape-font-specification:'Arial Rounded MT Bold, Normal';fill:#2b0000"
         id="path501" />
      <path
         d="m 78.885057,33.873749 q 0,0.504362 -0.157096,0.930176 -0.157097,0.425814 -0.454753,0.731739 -0.297657,0.305925 -0.711068,0.471289 -0.413412,0.161231 -0.930176,0.161231 -0.512631,0 -0.921908,-0.165365 -0.409278,-0.165365 -0.711068,-0.471289 -0.297657,-0.310059 -0.454753,-0.727605 -0.152962,-0.42168 -0.152962,-0.930176 0,-0.51263 0.157096,-0.938444 0.157096,-0.425814 0.450619,-0.727605 0.293522,-0.30179 0.711068,-0.463021 0.417545,-0.165364 0.921908,-0.165364 0.51263,0 0.930176,0.165364 0.417545,0.165365 0.715202,0.47129 0.297656,0.305924 0.450619,0.727604 0.157096,0.42168 0.157096,0.930176 z m -1.132748,0 q 0,-0.690397 -0.305925,-1.07487 -0.30179,-0.384473 -0.81442,-0.384473 -0.33073,0 -0.582911,0.173633 -0.252181,0.169499 -0.388607,0.504362 -0.136426,0.334864 -0.136426,0.781348 0,0.442351 0.132292,0.77308 0.136426,0.330729 0.384473,0.508496 0.252181,0.173633 0.591179,0.173633 0.51263,0 0.81442,-0.384473 0.305925,-0.388607 0.305925,-1.070736 z"
         style="font-size:8.46667px;font-family:'Arial Rounded MT Bold';-inkscape-font-specification:'Arial Rounded MT Bold, Normal';fill:#2b0000"
         id="path503" />
      <path
         d="m 79.682943,31.678533 h 0.268717 v -0.338997 q 0,-0.529167 0.132292,-0.839226 0.136426,-0.314192 0.454753,-0.454752 0.322461,-0.144695 0.880566,-0.144695 0.988054,0 0.988054,0.483692 0,0.157096 -0.103353,0.268718 -0.103353,0.111621 -0.243913,0.111621 -0.06614,0 -0.227376,-0.02481 -0.16123,-0.02481 -0.272852,-0.02481 -0.305924,0 -0.392741,0.181901 -0.08682,0.177767 -0.08682,0.512631 v 0.268717 h 0.276986 q 0.644922,0 0.644922,0.388607 0,0.276986 -0.173633,0.3514 -0.169499,0.07441 -0.471289,0.07441 H 81.08027 v 2.988966 q 0,0.334864 -0.161231,0.512631 -0.157096,0.173633 -0.409277,0.173633 -0.239779,0 -0.401009,-0.173633 Q 79.95166,35.816784 79.95166,35.48192 v -2.988966 h -0.310059 q -0.252181,0 -0.388606,-0.111621 -0.136426,-0.115755 -0.136426,-0.297656 0,-0.405144 0.566374,-0.405144 z"
         style="font-size:8.46667px;font-family:'Arial Rounded MT Bold';-inkscape-font-specification:'Arial Rounded MT Bold, Normal';fill:#2b0000"
         id="path505" />
      <path
         d="m 82.655371,31.678533 h 0.124023 v -0.677995 q 0,-0.272851 0.0124,-0.425814 0.01654,-0.157096 0.08268,-0.268717 0.06615,-0.115755 0.190169,-0.186035 0.124024,-0.07441 0.276986,-0.07441 0.214974,0 0.388607,0.16123 0.115755,0.107487 0.144694,0.264584 0.03307,0.152962 0.03307,0.438216 v 0.768945 h 0.413411 q 0.239779,0 0.363803,0.115756 0.128157,0.111621 0.128157,0.289388 0,0.227376 -0.181901,0.318327 -0.177767,0.09095 -0.51263,0.09095 H 83.908 v 2.075327 q 0,0.264583 0.01654,0.409277 0.02067,0.14056 0.09922,0.231511 0.08268,0.08682 0.264583,0.08682 0.09922,0 0.268718,-0.03307 0.169499,-0.03721 0.264583,-0.03721 0.136426,0 0.243913,0.111621 0.111621,0.107487 0.111621,0.268718 0,0.272852 -0.297656,0.417546 -0.297656,0.144694 -0.855762,0.144694 -0.529167,0 -0.802018,-0.177767 -0.272852,-0.177767 -0.359669,-0.49196 -0.08268,-0.314193 -0.08268,-0.839226 v -2.166277 h -0.148828 q -0.243913,0 -0.372071,-0.115755 -0.128157,-0.115755 -0.128157,-0.293522 0,-0.177767 0.132292,-0.289388 0.136425,-0.115756 0.392741,-0.115756 z"
         style="font-size:8.46667px;font-family:'Arial Rounded MT Bold';-inkscape-font-specification:'Arial Rounded MT Bold, Normal';fill:#2b0000"
         id="path507" />
    </g>
    <g
       id="text167"
       style="font-size:8.46667px;font-family:'Arial Rounded MT Bold';-inkscape-font-specification:'Arial Rounded MT Bold, Normal';stroke-width:0.264583" />
    <g
       transform="scale(0.26458333)"
       id="text169"
       style="font-size:32px;font-family:'Arial Rounded MT Bold';-inkscape-font-specification:'Arial Rounded MT Bold, Normal';white-space:pre;shape-inside:url(#rect171);display:inline" />
    <g
       id="text177"
       style="font-size:8.46667px;font-family:'Arial Rounded MT Bold';-inkscape-font-specification:'Arial Rounded MT Bold, Normal';stroke-width:0.264583" />
    <g
       transform="scale(0.26458333)"
       id="text179"
       style="font-size:32px;font-family:'Arial Rounded MT Bold';-inkscape-font-specification:'Arial Rounded MT Bold, Normal';white-space:pre;shape-inside:url(#rect181);display:inline" />
    <g
       id="text187"
       style="font-size:8.46667px;font-family:'Arial Rounded MT Bold';-inkscape-font-specification:'Arial Rounded MT Bold, Normal';stroke-width:0.264583" />
    <g
       id="text215"
       style="font-size:8.46667px;font-family:'Arial Rounded MT Bold';-inkscape-font-specification:'Arial Rounded MT Bold, Normal';stroke-width:0.264583" />
    <g
       transform="scale(0.26458333)"
       id="text476"
       style="font-size:32px;font-family:'Marker Felt';-inkscape-font-specification:'Marker Felt, Normal';white-space:pre;shape-inside:url(#rect478);fill:#2b0000" />
    <g
       transform="scale(0.26458333)"
       id="text535"
       style="font-size:32px;font-family:'Marker Felt';-inkscape-font-specification:'Marker Felt, Normal';white-space:pre;shape-inside:url(#rect537);fill:#2b0000" />
  </g>
</svg>
