<?xml version="1.0" encoding="UTF-8" standalone="no"?>
<!-- Created with Inkscape (http://www.inkscape.org/) -->

<svg
   width="39.178486mm"
   height="9.2542152mm"
   viewBox="0 0 39.178486 9.2542152"
   version="1.1"
   id="svg5"
   inkscape:version="1.2.2 (b0a84865, 2022-12-01)"
   sodipodi:docname="nlogo.svg"
   xmlns:inkscape="http://www.inkscape.org/namespaces/inkscape"
   xmlns:sodipodi="http://sodipodi.sourceforge.net/DTD/sodipodi-0.dtd"
   xmlns="http://www.w3.org/2000/svg"
   xmlns:svg="http://www.w3.org/2000/svg">
  <sodipodi:namedview
     id="namedview7"
     pagecolor="#ffffff"
     bordercolor="#000000"
     borderopacity="0.25"
     inkscape:showpageshadow="2"
     inkscape:pageopacity="0.0"
     inkscape:pagecheckerboard="0"
     inkscape:deskcolor="#d1d1d1"
     inkscape:document-units="mm"
     showgrid="false"
     inkscape:zoom="3.809356"
     inkscape:cx="240.06683"
     inkscape:cy="128.10564"
     inkscape:window-width="1414"
     inkscape:window-height="820"
     inkscape:window-x="0"
     inkscape:window-y="32"
     inkscape:window-maximized="0"
     inkscape:current-layer="layer1" />
  <defs
     id="defs2" />
  <g
     inkscape:label="Layer 1"
     inkscape:groupmode="layer"
     id="layer1"
     transform="translate(-41.692548,-27.314613)">
    <g
       id="g193"
       inkscape:export-filename="g193.svg"
       inkscape:export-xdpi="96"
       inkscape:export-ydpi="96">
      <g
         aria-label="Anna K Croft"
         id="text113"
         style="font-size:3.175px;stroke-width:0.264583"
         transform="translate(0.13891237)">
        <path
           id="path499"
           style="font-size:8.46667px;font-family:'Arial Rounded MT Bold';-inkscape-font-specification:'Arial Rounded MT Bold, Normal';fill:#f2f2f2;stroke-width:0.383866"
           d="m 60.422249,27.314612 c -0.573633,0 -1.11425,0.105681 -1.62109,0.317293 -0.506839,0.211611 -0.948834,0.521165 -1.326017,0.928109 -0.377183,0.402876 -0.66799,0.889103 -0.872298,1.458826 -0.200378,0.569722 -0.30024,1.214989 -0.30024,1.935282 0,0.443569 0.03924,0.86255 0.117822,1.257288 0.08251,0.394736 0.204263,0.767272 0.365352,1.117244 0.161089,0.345904 0.355546,0.659203 0.583427,0.939994 0.255384,0.309279 0.534109,0.559595 0.836642,0.750859 0.306461,0.187195 0.646321,0.325434 1.019576,0.414962 0.373254,0.08953 0.788089,0.134358 1.243851,0.134358 0.601135,0 1.127397,-0.0998 1.579232,-0.299206 0.451834,-0.199403 0.823398,-0.45773 1.114144,-0.775147 0.290745,-0.321486 0.502551,-0.647059 0.636137,-0.976684 0.08117,-0.196961 0.13779,-0.385393 0.171049,-0.56534 v 1.603002 c 0,0.333696 0.07446,0.586144 0.223759,0.75706 0.149301,0.170917 0.340248,0.256315 0.572058,0.256315 0.23574,0 0.430196,-0.08378 0.583427,-0.25063 0.15323,-0.170917 0.229443,-0.42498 0.229443,-0.762745 v -1.391646 h 5.17e-4 c 0,-0.500542 0.0156,-0.923787 0.04703,-1.26969 0.03143,-0.349973 0.08802,-0.651516 0.170532,-0.903821 0.08251,-0.252307 0.198481,-0.441255 0.347782,-0.567407 0.149303,-0.130223 0.342004,-0.195337 0.577743,-0.195337 0.172876,0 0.37136,0.03843 0.595312,0.115755 0.124929,0.04016 0.223504,0.06919 0.297657,0.08733 -0.05725,0.115957 -0.108688,0.237119 -0.153996,0.364318 -0.149301,0.419154 -0.223759,0.881351 -0.223759,1.385962 0,0.500542 0.0727,0.958476 0.218074,1.37356 0.149302,0.411014 0.365135,0.769144 0.648023,1.074353 0.286816,0.301139 0.624921,0.532787 1.013891,0.695565 0.38897,0.162778 0.826937,0.244429 1.314132,0.244429 0.491123,0 0.933118,-0.07952 1.326017,-0.238228 0.392899,-0.162777 0.731004,-0.394942 1.013892,-0.696082 0.282886,-0.301139 0.49872,-0.660884 0.648022,-1.080037 0.149302,-0.419154 0.223759,-0.877087 0.223759,-1.37356 0,-0.500542 -0.07446,-0.958475 -0.223759,-1.373559 -0.09316,-0.265998 -0.214687,-0.508399 -0.364318,-0.727604 0.105788,0.04156 0.232421,0.06253 0.379821,0.06253 h 0.441834 v 4.413167 c 0,0.329626 0.07446,0.582088 0.223759,0.75706 0.15323,0.170917 0.344176,0.256315 0.572058,0.256315 0.239668,0 0.434126,-0.0854 0.583427,-0.256315 0.153231,-0.174986 0.229443,-0.427433 0.229443,-0.75706 v -4.413167 h 0.395325 c 0.286816,0 0.510704,-0.03683 0.671794,-0.110071 0.01968,-0.0087 0.03796,-0.01892 0.05529,-0.03049 0.119677,0.09326 0.284309,0.14056 0.494027,0.14056 h 0.211873 v 3.198255 c 0,0.51682 0.03925,0.929922 0.117823,1.2392 0.08251,0.309279 0.253316,0.551585 0.51263,0.726571 0.259313,0.174987 0.640688,0.262516 1.143599,0.262516 0.530414,0 0.937194,-0.07151 1.220081,-0.21394 0.282886,-0.142431 0.424263,-0.347916 0.424263,-0.6165 0,-0.158708 -0.05308,-0.291069 -0.159163,-0.396875 -0.102153,-0.109875 -0.218125,-0.164848 -0.347782,-0.164848 -0.09037,0 -0.216149,0.01867 -0.377238,0.05529 -0.161088,0.03255 -0.288626,0.04858 -0.382923,0.04858 -0.172878,0 -0.29866,-0.0427 -0.377238,-0.128158 -0.07465,-0.08953 -0.121947,-0.20322 -0.141593,-0.341581 -0.01572,-0.142431 -0.02326,-0.34417 -0.02326,-0.604614 v -3.063896 h 0.300241 c 0.318247,0 0.561758,-0.04483 0.730704,-0.134359 0.172875,-0.08953 0.259416,-0.246435 0.259416,-0.470255 0,-0.174986 -0.06062,-0.317489 -0.182418,-0.427364 -0.11787,-0.113945 -0.29095,-0.171049 -0.518831,-0.171049 h -0.589112 v -1.135331 c 0,-0.280792 -0.01611,-0.49642 -0.04754,-0.646989 -0.0275,-0.15464 -0.09618,-0.284869 -0.206189,-0.390674 -0.165018,-0.158709 -0.349663,-0.237712 -0.553971,-0.237712 -0.145373,0 -0.276938,0.03631 -0.394808,0.109554 -0.117867,0.06918 -0.208435,0.160975 -0.271301,0.274919 -0.03002,0.05248 -0.05463,0.109907 -0.0739,0.172599 0.0015,-0.01863 0.0021,-0.03751 0.0021,-0.05684 0,-0.476126 -0.469153,-0.714168 -1.408182,-0.714168 -0.530413,0 -0.949276,0.07151 -1.255738,0.21394 -0.302531,0.138361 -0.518365,0.361999 -0.648022,0.671277 -0.125728,0.305208 -0.188619,0.718311 -0.188619,1.239201 v 0.500745 h -0.382923 c -0.538272,0 -0.807702,0.19909 -0.807702,0.597896 0,0.03897 0.0032,0.07625 0.0093,0.112138 -0.265935,-0.260906 -0.578539,-0.464945 -0.937928,-0.612366 -0.396828,-0.162777 -0.838823,-0.244429 -1.326017,-0.244429 -0.479337,0 -0.917304,0.08165 -1.314132,0.244429 -0.289721,0.115873 -0.548253,0.26823 -0.775146,0.457853 -0.06871,-0.173226 -0.211532,-0.319956 -0.429431,-0.439766 -0.318248,-0.174986 -0.646543,-0.262516 -0.984436,-0.262516 -0.337893,0 -0.60908,0.08753 -0.813387,0.262516 -0.200379,0.174986 -0.396591,0.433313 -0.589112,0.775146 -0.01179,-0.341833 -0.07695,-0.60016 -0.19482,-0.775146 -0.117869,-0.174986 -0.310054,-0.262516 -0.577226,-0.262516 -0.522555,0 -0.783931,0.37415 -0.783931,1.122928 v 2.424142 c -0.03577,-0.117219 -0.09872,-0.220947 -0.188619,-0.311609 -0.149301,-0.150569 -0.328164,-0.226343 -0.536401,-0.226343 -0.243598,0 -0.420189,0.07577 -0.530201,0.226343 -0.110009,0.1465 -0.202333,0.337581 -0.276985,0.573608 -0.176806,0.500542 -0.439936,0.881088 -0.789616,1.141533 -0.345751,0.256375 -0.770397,0.384472 -1.273307,0.384472 -0.463621,0 -0.868129,-0.114209 -1.21388,-0.342098 -0.345751,-0.227889 -0.612909,-0.571614 -0.801501,-1.031461 -0.188591,-0.463917 -0.28267,-1.043553 -0.28267,-1.739429 0,-1.041779 0.211806,-1.845569 0.636137,-2.411222 0.42826,-0.565654 1.001819,-0.848527 1.720825,-0.848527 0.451833,0 0.830937,0.109945 1.137398,0.329695 0.310391,0.21975 0.579822,0.551201 0.807703,0.994772 0.137514,0.268583 0.261024,0.458048 0.371036,0.567924 0.113941,0.109875 0.282993,0.164848 0.506946,0.164848 0.200379,0 0.371187,-0.07952 0.51263,-0.238229 0.141444,-0.158708 0.212391,-0.341778 0.212391,-0.54932 0,-0.378459 -0.145404,-0.779289 -0.43615,-1.202511 -0.290745,-0.427292 -0.709091,-0.785423 -1.25522,-1.074353 -0.54613,-0.288932 -1.168743,-0.433565 -1.868103,-0.433565 z m 16.917314,0.932243 c -0.0031,0.02049 -0.0061,0.04171 -0.0083,0.06304 -0.01179,0.15057 -0.01757,0.359802 -0.01757,0.628385 v 1.000973 H 77.13696 v 5.17e-4 c -0.234352,0 -0.415774,0.05267 -0.54467,0.158129 C 76.439442,29.992476 76.202474,29.93977 75.880706,29.93977 H 75.485412 V 29.5429 c 0,-0.329627 0.04151,-0.582074 0.124024,-0.75706 0.08251,-0.179056 0.26891,-0.268718 0.559655,-0.268718 0.106084,0 0.235893,0.01227 0.389124,0.03669 0.153234,0.02442 0.261151,0.03669 0.324011,0.03669 0.133586,0 0.249558,-0.05497 0.347783,-0.164848 0.04847,-0.05421 0.085,-0.113689 0.109554,-0.178799 z m -6.908106,2.779158 c 0.487194,0 0.874354,0.189465 1.16117,0.567924 0.290745,0.378459 0.436149,0.907385 0.436149,1.586983 0,0.671459 -0.145404,1.198254 -0.436149,1.580782 -0.286816,0.378459 -0.673976,0.567924 -1.16117,0.567924 -0.322178,0 -0.603174,-0.0854 -0.842843,-0.256315 -0.235739,-0.174985 -0.41863,-0.425303 -0.548286,-0.750858 -0.125728,-0.325556 -0.188103,-0.706101 -0.188103,-1.141533 0,-0.4395 0.06465,-0.824309 0.194304,-1.153934 0.129657,-0.329625 0.314303,-0.57781 0.553971,-0.744658 0.239668,-0.170917 0.516637,-0.256315 0.830957,-0.256315 z" />
        <path
           id="path489"
           style="font-size:8.46667px;font-family:'Arial Rounded MT Bold';-inkscape-font-specification:'Arial Rounded MT Bold, Normal';fill:#666666;stroke-width:0.165584"
           d="m 43.356107,30.595549 c -0.108763,0 -0.200549,0.0199 -0.275435,0.05994 -0.0731,0.03837 -0.132957,0.08904 -0.179317,0.152446 -0.04458,0.0634 -0.08715,0.143518 -0.128158,0.240295 -0.03923,0.09511 -0.07328,0.177052 -0.101803,0.245463 l -1.003039,2.3828 c -0.04101,0.09511 -0.07002,0.169333 -0.08785,0.222726 -0.01783,0.0534 -0.02687,0.104976 -0.02687,0.155029 0,0.08676 0.03805,0.16465 0.114722,0.233061 0.07667,0.06841 0.165251,0.102319 0.2651,0.102319 0.117679,0 0.202025,-0.03168 0.253731,-0.09508 0.05171,-0.06507 0.114482,-0.189562 0.187586,-0.373104 l 0.187068,-0.470256 h 1.594218 l 0.187069,0.460437 c 0.02496,0.05673 0.05449,0.122836 0.08837,0.197921 0.03566,0.07342 0.06839,0.128141 0.0987,0.164848 0.03031,0.03504 0.06808,0.06266 0.112654,0.08268 0.04457,0.02169 0.09779,0.03256 0.160197,0.03256 0.01897,0 0.03733,-8.97e-4 0.05529,-0.0031 0.01602,0.0023 0.03302,0.0031 0.05013,0.0031 0.09937,0 0.179939,-0.03391 0.241846,-0.102319 0.06353,-0.07008 0.09509,-0.174669 0.09509,-0.313159 v -0.855762 c 0,-0.278649 0.01651,-0.468726 0.04909,-0.570508 0.04561,-0.12681 0.11723,-0.226425 0.214974,-0.298173 0.09774,-0.07342 0.206122,-0.110071 0.325045,-0.110071 0.182458,0 0.303529,0.06021 0.363802,0.180351 0.06191,0.118467 0.09302,0.289958 0.09302,0.515214 v 1.138949 c 0,0.133484 0.03111,0.236243 0.09302,0.307991 0.0619,0.07175 0.142473,0.107487 0.241846,0.107487 0.09775,0 0.176921,-0.03482 0.237195,-0.104903 0.04596,-0.05203 0.07446,-0.122527 0.0863,-0.211357 0.01224,0.08636 0.04139,0.155919 0.08785,0.208773 0.06307,0.07175 0.143914,0.107487 0.241846,0.107487 0.101252,0 0.183423,-0.03391 0.246496,-0.102319 0.06473,-0.07008 0.09715,-0.174669 0.09715,-0.313159 v -0.855762 c 0,-0.278649 0.01642,-0.468726 0.04961,-0.570508 0.04648,-0.12681 0.119516,-0.226425 0.219108,-0.298173 0.09959,-0.07342 0.210076,-0.110071 0.331246,-0.110071 0.185905,0 0.309623,0.06021 0.371036,0.180351 0.06307,0.118467 0.09457,0.289958 0.09457,0.515214 v 1.138949 c 0,0.133484 0.03149,0.236243 0.09457,0.307991 0.06307,0.07175 0.145246,0.107487 0.246497,0.107487 0.09959,0 0.179915,-0.03482 0.241329,-0.104903 0.06106,-0.06784 0.09262,-0.167258 0.09457,-0.297656 0.0035,0.0057 0.0072,0.01135 0.01085,0.01705 0.07667,0.118468 0.185221,0.213108 0.326078,0.283187 0.14264,0.06841 0.307844,0.102319 0.49506,0.102319 0.205046,0 0.389418,-0.03168 0.553455,-0.09508 0.165819,-0.06507 0.337146,-0.161943 0.513663,-0.290422 0.08202,0.125142 0.159441,0.221096 0.232544,0.287838 0.0731,0.06507 0.147323,0.09767 0.222209,0.09767 0.08915,0 0.168174,-0.02802 0.237712,-0.08475 0.07132,-0.0584 0.10697,-0.122674 0.10697,-0.192753 0,-0.04005 -0.02289,-0.12971 -0.06925,-0.268201 -0.04457,-0.140158 -0.06718,-0.27408 -0.06718,-0.402559 0.0018,-0.136822 0.0026,-0.261311 0.0026,-0.373104 0.0018,-0.111793 0.0031,-0.248062 0.0031,-0.408244 0,-0.25362 -0.03857,-0.456791 -0.115238,-0.610299 -0.07489,-0.153507 -0.203923,-0.2653 -0.387573,-0.33538 -0.183649,-0.07175 -0.436118,-0.108003 -0.75706,-0.108003 -0.287064,0 -0.526771,0.03717 -0.719336,0.110587 -0.192565,0.07342 -0.334364,0.166624 -0.425297,0.280086 -0.09093,0.113462 -0.136426,0.230231 -0.136426,0.350367 0,0.07675 0.02953,0.140109 0.08837,0.190169 0.06062,0.04839 0.131922,0.07286 0.21394,0.07286 0.09093,0 0.14947,-0.01544 0.176217,-0.04548 0.02853,-0.0317 0.07614,-0.09598 0.14211,-0.192753 0.06775,-0.09678 0.147579,-0.169171 0.240296,-0.217558 0.0945,-0.04839 0.234696,-0.07235 0.420129,-0.07235 0.215744,0 0.357543,0.04254 0.425297,0.127641 0.06954,0.08343 0.108909,0.21512 0.117822,0.395325 -0.153338,0.04172 -0.295937,0.07745 -0.427881,0.107487 -0.130159,0.02837 -0.287122,0.06004 -0.470772,0.09508 -0.183648,0.03505 -0.298838,0.05769 -0.345198,0.0677 -0.221094,0.04505 -0.394822,0.133284 -0.521416,0.2651 -0.03284,0.0342 -0.06146,0.07061 -0.08578,0.10852 v -0.54622 c 0,-0.15017 -0.0064,-0.273744 -0.01964,-0.37052 -0.01327,-0.09678 -0.04251,-0.186839 -0.08733,-0.270267 -0.06971,-0.143496 -0.175172,-0.254374 -0.31626,-0.332797 -0.141088,-0.07842 -0.301326,-0.117822 -0.48059,-0.117822 -0.184245,0 -0.347662,0.03757 -0.49041,0.112655 -0.141087,0.07342 -0.271163,0.18927 -0.390673,0.347782 v -0.08268 c 0,-0.08176 -0.01509,-0.151006 -0.04496,-0.207739 -0.02822,-0.05673 -0.06659,-0.09927 -0.114722,-0.127641 -0.04814,-0.02837 -0.101994,-0.04237 -0.161747,-0.04237 -0.09793,0 -0.175077,0.0326 -0.23151,0.09767 -0.05643,0.0634 -0.08475,0.160274 -0.08475,0.290421 v 0.390157 c -0.002,-0.01993 -0.0043,-0.03929 -0.0067,-0.05736 -0.01303,-0.09678 -0.04128,-0.186839 -0.08527,-0.270267 -0.06842,-0.143496 -0.172104,-0.254374 -0.310575,-0.332797 -0.138471,-0.07842 -0.29535,-0.117822 -0.471289,-0.117822 -0.180827,0 -0.341524,0.03757 -0.481624,0.112655 -0.138472,0.07342 -0.266147,0.18927 -0.38344,0.347782 v -0.08268 c 0,-0.08176 -0.01461,-0.151006 -0.04393,-0.207739 -0.0277,-0.05673 -0.06541,-0.09927 -0.112654,-0.127641 -0.04724,-0.02837 -0.1,-0.04237 -0.158647,-0.04237 -0.09612,0 -0.17199,0.0326 -0.227376,0.09767 -0.05539,0.0634 -0.0832,0.160274 -0.0832,0.290421 v 0.518832 l -0.532267,-1.2299 c -0.04814,-0.118467 -0.08831,-0.21259 -0.120407,-0.28267 -0.03031,-0.07175 -0.06836,-0.138254 -0.114721,-0.199987 -0.04457,-0.06173 -0.104431,-0.111999 -0.179317,-0.150379 -0.0731,-0.04005 -0.164889,-0.05994 -0.275436,-0.05994 z m 10.013342,0.04186 c -0.121244,0 -0.217551,0.03757 -0.288871,0.112655 -0.06954,0.07509 -0.104386,0.187793 -0.104386,0.337964 v 2.727999 c 0,0.116802 0.0029,0.20595 0.0083,0.267684 0.0054,0.06174 0.02052,0.11606 0.04548,0.16278 0.03388,0.05673 0.08177,0.102019 0.144178,0.135393 0.0624,0.03337 0.127583,0.05013 0.195336,0.05013 0.117679,0 0.213985,-0.03717 0.288872,-0.110588 0.07489,-0.07509 0.112138,-0.189107 0.112138,-0.342614 v -0.758611 l 0.650089,-0.58291 0.938444,1.351339 c 0.03744,0.06007 0.08053,0.127088 0.128674,0.200505 0.04814,0.07341 0.10668,0.132713 0.176217,0.177767 0.06954,0.04338 0.159721,0.06511 0.270268,0.06511 0.117678,0 0.210264,-0.03037 0.278019,-0.09043 0.06954,-0.06007 0.104386,-0.130631 0.104386,-0.21239 0,-0.07342 -0.01968,-0.148555 -0.05891,-0.225309 -0.03923,-0.07842 -0.09776,-0.169401 -0.176216,-0.272852 l -1.112594,-1.491898 0.965316,-0.855762 c 0.119461,-0.106787 0.179317,-0.214521 0.179317,-0.322978 0,-0.09011 -0.03565,-0.16616 -0.10697,-0.227893 -0.06954,-0.06341 -0.161324,-0.09509 -0.275436,-0.09509 -0.08736,0 -0.157863,0.01767 -0.211356,0.05271 -0.05171,0.03504 -0.115283,0.08937 -0.190169,0.162781 l -1.559078,1.521354 v -1.286226 c 0,-0.151839 -0.03725,-0.264547 -0.112138,-0.337964 -0.0731,-0.07508 -0.16941,-0.112655 -0.288872,-0.112655 z m -10.018509,0.741557 0.591178,1.51412 h -1.171505 z m 7.865669,1.636593 v 0.09767 c 0,0.236936 -0.03325,0.407114 -0.09922,0.510563 -0.05706,0.09344 -0.14724,0.170411 -0.270268,0.230477 -0.121244,0.0584 -0.254002,0.08733 -0.398426,0.08733 -0.135508,0 -0.24486,-0.03574 -0.328662,-0.107486 -0.0838,-0.07342 -0.12609,-0.16165 -0.12609,-0.265101 0,-0.100115 0.03565,-0.178 0.10697,-0.23306 0.07132,-0.05673 0.146341,-0.0943 0.224793,-0.112655 0.07845,-0.02002 0.21945,-0.04987 0.422713,-0.08992 0.205046,-0.04172 0.361208,-0.08112 0.468188,-0.117822 z" />
      </g>
    </g>
  </g>
</svg>
