<?xml version="1.0" encoding="UTF-8" standalone="no"?>
<!-- Generator: Adobe Illustrator 25.3.1, SVG Export Plug-In . SVG Version: 6.00 Build 0)  -->

<svg
   xmlns:ns="&amp;ns_sfw;"
   xmlns:dc="http://purl.org/dc/elements/1.1/"
   xmlns:cc="http://creativecommons.org/ns#"
   xmlns:rdf="http://www.w3.org/1999/02/22-rdf-syntax-ns#"
   xmlns:svg="http://www.w3.org/2000/svg"
   xmlns="http://www.w3.org/2000/svg"
   xmlns:sodipodi="http://sodipodi.sourceforge.net/DTD/sodipodi-0.dtd"
   xmlns:inkscape="http://www.inkscape.org/namespaces/inkscape"
   version="1.1"
   id="Layer_1"
   x="0px"
   y="0px"
   viewBox="0 0 631.70001 245.8"
   xml:space="preserve"
   sodipodi:docname="krembil_blue.svg"
   width="631.70001"
   height="245.8"
   inkscape:version="0.92.4 5da689c313, 2019-01-14"><defs
   id="defs57" /><sodipodi:namedview
   pagecolor="#ffffff"
   bordercolor="#666666"
   borderopacity="1"
   objecttolerance="10"
   gridtolerance="10"
   guidetolerance="10"
   inkscape:pageopacity="0"
   inkscape:pageshadow="2"
   inkscape:window-width="3234"
   inkscape:window-height="1784"
   id="namedview55"
   showgrid="false"
   inkscape:zoom="1.7205179"
   inkscape:cx="329.35152"
   inkscape:cy="89.904545"
   inkscape:window-x="0"
   inkscape:window-y="0"
   inkscape:window-maximized="0"
   inkscape:current-layer="Layer_1" />
<style
   type="text/css"
   id="style2">
	.st0{display:none;fill:#FFFFFF;stroke:#000000;stroke-miterlimit:10;}
	.st1{display:none;fill:#407EC9;stroke:#000000;stroke-miterlimit:10;}
	.st2{fill:#407EC9;}
</style>
<metadata
   id="metadata4">
	<ns:sfw>
		<ns:slices />
		<ns:sliceSourceBounds
   bottomLeftOrigin="true"
   height="636"
   width="1086"
   x="-0.5"
   y="-635.5" />
	</ns:sfw>
<rdf:RDF><cc:Work
     rdf:about=""><dc:format>image/svg+xml</dc:format><dc:type
       rdf:resource="http://purl.org/dc/dcmitype/StillImage" /></cc:Work></rdf:RDF></metadata>
<rect
   class="st0"
   width="1085"
   height="635"
   id="rect6"
   x="-226.3"
   y="-176.39999"
   style="display:none;fill:#ffffff;stroke:#000000;stroke-miterlimit:10" />
<rect
   class="st1"
   width="1085"
   height="635"
   id="rect8"
   x="-226.3"
   y="-176.39999"
   style="display:none;fill:#407ec9;stroke:#000000;stroke-miterlimit:10" />
<g
   id="g52"
   transform="translate(-226.3,-176.4)">
	<g
   id="g32">
		<path
   d="m 338.4,352.2 c 4.4,-0.9 10.3,-1.5 15.1,-1.5 9.1,0 14.9,2 18.9,5.8 3,2.9 4.9,7.6 4.9,12.4 0,9.4 -5.6,15.4 -13.7,18.2 v 0.2 c 5.6,1.8 9.1,7 10.8,14.8 2.4,10.9 3.7,16.1 5.2,18.9 h -5.1 c -1.1,-2.1 -2.6,-8.2 -4.5,-17 -2.2,-10.1 -6.5,-14.6 -15.8,-15 h -10.9 v 32 h -5 v -68.8 z m 5,32.8 h 11.1 c 10.8,0 17.8,-6 17.8,-15.2 0,-10.7 -7.9,-15 -18.9,-15 -4.8,0 -8.3,0.5 -10.1,0.9 V 385 Z"
   id="path10"
   inkscape:connector-curvature="0" />
		<path
   d="m 390.5,395.7 c 0,15.9 8.7,22.2 19,22.2 7.3,0 11,-1.5 13.8,-2.8 l 1.2,3.8 c -1.9,1 -6.9,3.2 -15.7,3.2 -14.3,0 -23.2,-10.4 -23.2,-25 0,-16.6 9.5,-26.9 22.4,-26.9 16.3,0 19.4,15.3 19.4,22.5 0,1.3 0,2.1 -0.2,3 z m 31.7,-3.9 c 0.1,-6.9 -2.8,-17.4 -14.8,-17.4 -11,0 -15.7,9.7 -16.6,17.4 z"
   id="path12"
   inkscape:connector-curvature="0" />
		<path
   d="m 439,347.4 h 5 v 73.7 h -5 z"
   id="path14"
   inkscape:connector-curvature="0" />
		<path
   d="m 460.6,395.7 c 0,15.9 8.7,22.2 19,22.2 7.3,0 11,-1.5 13.8,-2.8 l 1.2,3.8 c -1.9,1 -6.9,3.2 -15.7,3.2 -14.3,0 -23.2,-10.4 -23.2,-25 0,-16.6 9.5,-26.9 22.4,-26.9 16.3,0 19.4,15.3 19.4,22.5 0,1.3 0,2.1 -0.2,3 z m 31.8,-3.9 c 0.1,-6.9 -2.8,-17.4 -14.8,-17.4 -11,0 -15.7,9.7 -16.6,17.4 z"
   id="path16"
   inkscape:connector-curvature="0" />
		<path
   d="m 509.1,383.3 c 0,-4.6 -0.1,-8 -0.4,-11.9 h 4.7 l 0.3,8.9 h 0.2 c 2.7,-5.6 9,-10.1 17.1,-10.1 4.8,0 17.4,2.4 17.4,21 v 29.9 h -5 v -29.4 c 0,-9.1 -3.5,-17.3 -13.8,-17.3 -6.9,0 -13,5 -14.9,11.5 -0.3,1.1 -0.6,2.8 -0.6,4.4 v 30.9 h -5 z"
   id="path18"
   inkscape:connector-curvature="0" />
		<path
   d="m 570.5,360.4 v 11 h 14.2 v 4 h -14.2 v 32.3 c 0,6.3 2,10.3 7.3,10.3 2.6,0 4.5,-0.3 5.7,-0.7 l 0.6,3.7 c -1.7,0.6 -3.9,1.1 -6.9,1.1 -3.6,0 -6.6,-1.1 -8.5,-3.4 -2.3,-2.6 -3.1,-6.8 -3.1,-11.9 v -31.4 h -8.4 v -4 h 8.4 v -9.1 z"
   id="path20"
   inkscape:connector-curvature="0" />
		<path
   d="m 594.7,347.4 h 5 v 73.7 h -5 z"
   id="path22"
   inkscape:connector-curvature="0" />
		<path
   d="m 616.3,395.7 c 0,15.9 8.7,22.2 19,22.2 7.3,0 11,-1.5 13.8,-2.8 l 1.2,3.8 c -1.9,1 -6.9,3.2 -15.7,3.2 -14.3,0 -23.2,-10.4 -23.2,-25 0,-16.6 9.5,-26.9 22.4,-26.9 16.3,0 19.4,15.3 19.4,22.5 0,1.3 0,2.1 -0.2,3 z m 31.7,-3.9 c 0.1,-6.9 -2.8,-17.4 -14.8,-17.4 -11,0 -15.7,9.7 -16.6,17.4 z"
   id="path24"
   inkscape:connector-curvature="0" />
		<path
   d="m 662.7,414.6 c 2.7,1.7 6.7,3.4 11.2,3.4 7.9,0 11.6,-4.2 11.6,-9.4 0,-5.5 -3.3,-8.4 -10.5,-11.3 -8.2,-3.1 -12.6,-7.6 -12.6,-13.6 0,-7.3 5.7,-13.5 15.3,-13.5 4.6,0 8.5,1.3 11,3.1 l -1.9,4 c -1.8,-1.2 -5,-3 -9.9,-3 -6.3,0 -9.6,4 -9.6,8.6 0,5.2 3.5,7.4 10.3,10.2 8.1,3.2 12.9,7.3 12.9,14.8 0,8.5 -6.6,14.2 -16.8,14.2 -4.8,0 -9.3,-1.3 -12.6,-3.4 z"
   id="path26"
   inkscape:connector-curvature="0" />
		<path
   d="m 700.4,414.6 c 2.7,1.7 6.7,3.4 11.2,3.4 7.9,0 11.6,-4.2 11.6,-9.4 0,-5.5 -3.3,-8.4 -10.5,-11.3 -8.2,-3.1 -12.6,-7.6 -12.6,-13.6 0,-7.3 5.7,-13.5 15.3,-13.5 4.6,0 8.5,1.3 11,3.1 l -1.9,4 c -1.8,-1.2 -5,-3 -9.9,-3 -6.3,0 -9.6,4 -9.6,8.6 0,5.2 3.5,7.4 10.3,10.2 8.1,3.2 12.9,7.3 12.9,14.8 0,8.5 -6.6,14.2 -16.8,14.2 -4.8,0 -9.3,-1.3 -12.6,-3.4 z"
   id="path28"
   inkscape:connector-curvature="0" />
		<path
   d="m 741.3,422.2 c -2.4,0 -4.1,-2.2 -4,-4.7 0,-2.7 1.8,-4.7 4.2,-4.7 2.5,0 4.1,2 4.1,4.7 0,2.5 -1.7,4.7 -4.2,4.7 z"
   id="path30"
   inkscape:connector-curvature="0" />
	</g>
	<g
   id="g50">
		<path
   class="st2"
   d="M 226.3,183.9 H 258 v 62.6 h 0.6 c 3.2,-5.5 6.5,-10.5 9.7,-15.6 l 32.2,-47.1 h 39.3 l -46.9,60.3 49.4,81.3 H 304.9 L 270.2,264.2 258,279.3 v 46.2 h -31.7 z"
   id="path34"
   inkscape:connector-curvature="0"
   style="fill:#407ec9" />
		<path
   class="st2"
   d="m 339.6,256.6 c 0,-15.1 -0.4,-25 -0.8,-33.8 h 27.5 l 1.1,18.9 h 0.8 c 5.3,-14.9 17.9,-21.2 27.7,-21.2 2.9,0 4.4,0 6.7,0.4 v 30.3 c -2.3,-0.6 -5,-1.1 -8.6,-1.1 -11.8,0 -19.8,6.3 -21.9,16.2 -0.4,2.1 -0.6,4.6 -0.6,7.1 v 52.1 h -31.9 z"
   id="path36"
   inkscape:connector-curvature="0"
   style="fill:#407ec9" />
		<path
   class="st2"
   d="m 432.5,284.4 c 1.1,13.2 14.1,19.5 29,19.5 10.9,0 19.8,-1.5 28.4,-4.2 l 4.2,21.6 c -10.5,4.2 -23.3,6.5 -37.2,6.5 -34.9,0 -54.8,-20.4 -54.8,-52.5 0,-26.1 16.2,-54.8 51.9,-54.8 33.2,0 45.8,25.8 45.8,51.3 0,5.5 -0.6,10.3 -1.1,12.6 z m 37.6,-21.9 c 0,-7.8 -3.4,-20.8 -18.1,-20.8 -13.4,0 -18.9,12.2 -19.8,20.8 z"
   id="path38"
   inkscape:connector-curvature="0"
   style="fill:#407ec9" />
		<path
   class="st2"
   d="m 508.3,255.6 c 0,-12.8 -0.4,-23.7 -0.8,-32.8 h 26.9 l 1.5,13.9 h 0.6 c 4.4,-6.5 13.4,-16.2 31.1,-16.2 13.2,0 23.7,6.7 28.2,17.4 h 0.4 c 3.8,-5.5 8.4,-9.5 13.2,-12.4 5.7,-3.4 12,-5 19.5,-5 19.8,0 34.7,13.9 34.7,44.6 v 60.5 h -31.1 v -55.9 c 0,-14.9 -4.8,-23.5 -15.1,-23.5 -7.4,0 -12.6,5 -14.7,11.1 -0.8,2.3 -1.3,5.7 -1.3,8.2 v 60.1 H 570.3 V 268 c 0,-13 -4.6,-21.9 -14.7,-21.9 -8.2,0 -13,6.3 -14.9,11.6 -1.1,2.5 -1.3,5.5 -1.3,8 v 59.9 h -31.1 z"
   id="path40"
   inkscape:connector-curvature="0"
   style="fill:#407ec9" />
		<path
   class="st2"
   d="m 673.3,176.4 h 31.9 V 235 h 0.4 c 6.1,-8.8 16.8,-14.5 31.1,-14.5 24.6,0 42.7,20.4 42.4,51.9 0,37 -23.5,55.5 -47.1,55.5 -12,0 -23.5,-4.4 -30.9,-16.6 h -0.4 l -1.3,14.3 h -27.1 c 0.4,-6.7 0.8,-19.1 0.8,-30.7 V 176.4 Z m 31.9,105.4 c 0,2.1 0.2,4 0.6,5.7 2.1,8.6 9.5,15.1 18.7,15.1 13.7,0 22.1,-10.5 22.1,-29 0,-16 -7.1,-28.6 -22.1,-28.6 -8.6,0 -16.6,6.5 -18.7,15.8 -0.4,1.9 -0.6,3.8 -0.6,5.9 z"
   id="path42"
   inkscape:connector-curvature="0"
   style="fill:#407ec9" />
		<path
   class="st2"
   d="m 818.3,194.2 c 0,8.8 -6.7,16 -17.2,16 -10.1,0 -16.8,-7.1 -16.6,-16 -0.2,-9.2 6.5,-16.2 16.8,-16.2 10.2,0 16.8,7 17,16.2 z m -33,131.4 V 222.8 h 31.9 v 102.8 z"
   id="path44"
   inkscape:connector-curvature="0"
   style="fill:#407ec9" />
		<g
   id="g48">
			<path
   class="st2"
   d="m 826,176.4 h 32 v 149.2 h -32 z"
   id="path46"
   inkscape:connector-curvature="0"
   style="fill:#407ec9" />
		</g>
	</g>
</g>
</svg>